<?xml version="1.0" encoding="UTF-8" standalone="no"?>
<svg width="256px" height="146px" viewBox="0 0 256 146" version="1.1" xmlns="http://www.w3.org/2000/svg" xmlns:xlink="http://www.w3.org/1999/xlink" preserveAspectRatio="xMidYMid">
    <g>
        <path d="M183.857,45.6685 L183.857,93.3015 L208.363,69.1975 L183.857,45.6685 Z M169.893,41.0455 L169.893,97.9245 L228.415,69.1975 L169.893,41.0455 Z" fill="#009639"></path>
        <path d="M145.387,41.0455 L86.8645,69.1975 L145.387,97.9245 L145.387,41.0455 Z M131.423,45.6685 L106.917,69.1975 L131.423,93.3015 L131.423,45.6685 Z" fill="#009639"></path>
        <path d="M16.656,69.1975 L75.178,97.3495 L75.178,40.4705 L16.656,69.1975 Z" fill="#009639"></path>
        <path d="M240.018,69.1975 L240.018,40.4705 L181.496,69.1975 L240.018,97.3495 L240.018,69.1975 Z" fill="#009639"></path>
        <path d="M75.178,40.4705 L75.178,97.3495 L133.7,69.1975 L75.178,40.4705 Z" fill="#009639"></path>
    </g>
</svg>
