<?xml version="1.0" encoding="iso-8859-1"?>
<!-- Uploaded to: SVG Repo, www.svgrepo.com, Generator: SVG Repo Mixer Tools -->
<svg height="800px" width="800px" version="1.1" id="Layer_1" xmlns="http://www.w3.org/2000/svg" xmlns:xlink="http://www.w3.org/1999/xlink" 
	 viewBox="0 0 508 508" xml:space="preserve">
<circle style="fill:#324A5E;" cx="254" cy="254" r="254"/>
<circle style="fill:#4CDBC4;" cx="238.8" cy="254" r="168.4"/>
<g>
	<path style="fill:#2C9984;" d="M407.2,254c0-40.8-14.8-78.4-38.8-107.6c-0.8,0-2-0.4-2.8-0.8c-5.2-7.2-14.4-11.2-23.2-10
		c-8.8,1.2-16.8,7.6-19.6,16c-1.6,5.2-2.4,11.6-7.2,14c-6,3.2-13.6-3.2-20-0.4c-4.8,2-6.8,8.4-6,13.6c0.4,3.2,2,6.4,4,9.2
		c3.2,4,8.4,8.8,5.6,13.6c-2,3.6-7.6,3.6-10,6.8c-2.8,4.4,2,9.6,2.8,14.4c0.8,5.2-3.2,10-6.4,14.4c-10.4,14.8-14,34.4-8.8,52
		c0.4,1.6,0.8,2.8,2,4s3.2,1.6,4.8,1.6c12.8,1.2,26.4-4.8,38.4,0c-3.2,4-3.6,10-1.2,14.4c1.2,2.4,3.6,4.4,4.8,7.2
		c2.4,4,2.4,9.2,2.4,13.6c0,10,0.4,19.6,0.4,29.6c0,2,0,4.4,1.2,6c0.8,1.2,1.6,2,2.4,2.8c2.4,3.2,2,7.6,1.2,11.2s-2,7.6-1.2,11.6
		c0,0.8,0.4,1.2,0.4,2C377.6,362.8,407.2,312,407.2,254z"/>
	<path style="fill:#2C9984;" d="M270,95.6c-8-4-17.2,0.8-26,2.8c-14.4,3.2-28.8-2-42.4-8.8c-51.6,11.6-94,46.8-115.6,93.6
		c1.2,1.6,2.8,2.8,4,4.4c4,6.8-0.8,14.8-0.4,22.8c0.8,8.8,8.8,15.2,12,23.2c3.2,8.4,2,19.2,8,25.6c2,2.4,5.2,4,8,5.6
		c9.6,5.2,19.2,10,28.8,15.2c3.6,2,7.6,4.4,8.4,8.4c1.2,6.4-6.4,12.4-3.6,18.4c1.2,2.4,4.4,3.6,6.4,5.6c6.4,5.2,6,14.8,10.4,21.6
		c2,2.8,4.4,5.2,6.4,8.4c4.8,7.2,4.4,16.4,3.2,25.2c-1.2,8.4-3.6,17.2-2.4,25.6c0.4,3.6,1.6,7.2,4,9.6c2.8,2.4,6.8,3.2,9.6,0.8
		c2-1.6,2.4-4,3.2-6.4c5.2-15.2,12.8-33.2,28-38c8-2.4,14-10,16.4-18.4s1.6-16.8,0.4-25.2c-0.4-2.8-0.8-5.6-2.8-8
		c-2.4-3.2-6.4-4.4-10-6c-10.8-6-16.8-19.2-28.8-22.4c-7.6-2-15.6,1.2-23.6,2c-8,1.2-17.6-0.8-20.4-8.4c-0.4-1.6-0.8-3.2-2-4
		c-0.8-0.8-2-1.2-3.2-1.6c-5.2-1.6-10.4-3.6-14.4-7.2s-6.8-9.6-5.2-14.8c2-7.2,10-10.4,17.2-12.4c14-4,30-8,36-21.2
		c1.6-3.6,2.4-8,5.2-10.8c6-6.4,19.2-4.8,22.4-13.2c0.8-2,0.8-4.4,0.4-6.4c-0.8-6.4-3.6-12.8-8.8-16.8s-12.4-5.6-18.4-2.4
		c-4.4,2.4-7.2,7.2-10.8,10.8s-8.8,6.8-13.6,4.8c-4-1.6-6-6.8-5.2-11.2s3.2-8,6.4-11.6c1.6-2,3.6-4,6-5.2s5.2-0.8,8-0.8
		c12,0.8,24,1.2,35.6,2c1.6-2.4,0.8-6-0.8-8.4s-4-4.4-6-6.8c-4.8-6-6.4-14.8-3.2-22c11.6,2.8,22.8,10.4,25.6,22
		c1.6,8-1.2,16.8,2,24.4c7.6,2,15.6-2.4,21.2-8c5.6-5.6,10-12.4,16.4-16.8c2.8-2,6.4-3.6,8.8-6.4c3.2-3.2,5.2-7.6,6-12
		C279.2,109.2,277.2,99.2,270,95.6z"/>
</g>
<g>
	<path style="fill:#FFFFFF;" d="M429.2,221.2c-9.6,11.2-22.8,20-38.4,23.6c-29.2,7.2-58.4-4-75.6-26c-1.2-1.6-2.4-3.2-3.6-5.2
		l-44.4-14l32.4-33.2c2.8-30.4,24.4-56.8,55.6-64.8c39.6-10,79.6,14,89.2,53.6C450.4,179.6,444,204,429.2,221.2z"/>
	<path style="fill:#FFFFFF;" d="M82,285.2c-28.4,29.2-27.6,75.6,1.2,104c29.2,28.4,75.6,27.6,104-1.2c22.4-23.2,26.8-56.8,13.2-84
		l10.4-45.2L166,269.6C138.4,256.8,104.4,262,82,285.2z"/>
</g>
<path style="fill:#FF7058;" d="M429.2,221.2c-9.6,11.2-22.8,20-38.4,23.6c-29.2,7.2-58.4-4-75.6-26c2.8-4.4,7.2-8.4,12-10.8
	l23.2-11.2c0.8-2.8,4-7.2,4.4-7.2c-1.6-2.4-3.2-5.2-4.4-8.4c-2,0-4-1.6-4.8-4c-1.2-2.4-0.8-4.8,0-6.4c-3.6-9.6-6-24.4,6-35.2l-6,2.4
	c0,0,7.2-13.2,21.6-8.8c0,0-1.2-2.4-6-3.6c0,0,6.4-2.8,10.4,1.6c0,0,2-1.6,0-3.2c0,0,11.2,0.4,21.2,9.6c13.2,12.4,10,28.4,5.2,39.2
	c0.4,1.6,0.4,3.2-0.4,5.2s-2.4,3.2-4.4,3.6c-0.8,1.6-3.6,6.4-4.8,8.4c0,0,3.6,4.4,4.4,7.2l23.2,11.2
	C421.6,211.2,426.4,216,429.2,221.2z"/>
<path style="fill:#FFD05B;" d="M189.2,386.4c-0.4,0.4-0.8,1.2-1.6,1.6c-28.4,29.2-75.2,29.6-104,1.2c-1.2-1.2-2.4-2.4-3.6-3.6
	c2.8-5.6,7.2-10,12.8-12.8l21.6-10.4c0.8-2.8,4-6.8,4-6.8c-1.6-2.4-2.8-4.8-4-7.6c-1.6,0-3.6-1.6-4.8-3.6c-0.8-2-0.8-4.4,0-6
	c-3.2-9.2-5.6-22.8,5.6-33.2l-5.2,1.2c0,0,6.8-12.4,20.4-8c0,0-1.2-2-5.6-3.2c0,0,6-2.8,9.6,1.6c0,0,2-1.6,0-3.2
	c0,0,10.4,0.4,19.6,9.2c12.4,11.6,9.2,26.8,5.2,36.8c0.4,1.2,0.4,3.2-0.4,4.8c-0.8,2-2.4,3.2-4,3.6c-0.8,1.2-3.6,6-4.4,7.6
	c0,0,3.6,4,4,6.8l21.6,10.4C181.6,375.6,186.4,380.4,189.2,386.4z"/>
</svg>